<svg xmlns="http://www.w3.org/2000/svg" height="20" viewBox="0 -960 960 960" width="20"><path d="M256.832-73Q225-73 202.5-95.668t-22.5-54.5Q180-182 202.668-204.5t54.5-22.5Q289-227 311.5-204.332t22.5 54.5Q334-118 311.332-95.5t-54.5 22.5Zm441.42 0Q666-73 644-95.668t-22-54.5Q622-182 644.398-204.5t53.85-22.5Q731-227 753-204.332t22 54.5Q775-118 752.752-95.5t-54.5 22.5ZM276-682l59 142h299l54-142H276Zm-51-112h553.276q29.852 0 45.788 26Q840-742 826-714l-96.307 231.522Q719-458 696.797-442.5 674.593-427 647-427H331l-28 48h488v112H269q-57 0-82.5-46.653Q161-360.305 188-406l48-80-123-292H18v-112h166l41 96Zm110 254h299-299Z"/></svg>