<svg xmlns="http://www.w3.org/2000/svg" height="48" viewBox="0 -960 960 960" width="48"><path d="m480-172-25-24q-102.768-95.121-168.884-161.561Q220-424 182-473.5t-52-89.172Q116-602.343 116-641q0-74.736 52.205-126.868Q220.409-820 296-820q51 0 98.5 28.5T480-707q39-56 85.356-84.5Q611.712-820 664-820q75.591 0 127.795 52.132Q844-715.736 844-641q0 38.657-14 78.328-14 39.672-51.886 88.957-37.885 49.285-104.116 115.939Q607.768-291.121 505-196l-25 24Zm0-48q98.291-89.549 162.125-153.156t100.854-111.226Q780-532 794.5-568.791q14.5-36.791 14.5-72.328Q809-702 767.5-743.5T664.225-785q-49.524 0-91.375 29.5Q531-726 496-667h-32q-36-59-78.331-88.5-42.33-29.5-89.894-29.5Q235-785 193-743.786q-42 41.215-42 103.433 0 34.96 14.66 71.697 14.66 36.738 51.5 83.697T317.5-374Q381-310 480-220Zm0-283Z"/></svg>