<svg xmlns="http://www.w3.org/2000/svg" height="48" viewBox="0 -960 960 960" width="48"><path d="M540-126q-11.549 11-25.275 11Q501-115 490-126L127-488q-6-6-8.5-12.926Q116-507.851 116-515v-294q0-14 10.5-24.5T151-844h294q7.064 0 13.459 2.583Q464.854-838.833 471-834l362 360q12 12 12 27.5T834-420L540-126Zm-23.448-24L811-445 445.581-809H151v294.319L516.552-150Zm-262.67-519q16.535 0 27.326-11.321Q292-691.642 292-707.529q0-15.888-10.924-26.679Q270.152-745 254.118-745q-17.535 0-27.826 10.632Q216-723.735 216-708.118q0 16.035 10.174 27.576Q236.348-669 253.882-669ZM151-809Z"/></svg>